<svg xmlns:dc="http://purl.org/dc/elements/1.1/" xmlns:cc="http://creativecommons.org/ns#" xmlns:rdf="http://www.w3.org/1999/02/22-rdf-syntax-ns#" xmlns:svg="http://www.w3.org/2000/svg" xmlns="http://www.w3.org/2000/svg" xmlns:xlink="http://www.w3.org/1999/xlink" id="svg410321" viewBox="0 0 1024 768" height="768px" width="1024px" version="1.1">
  <metadata id="metadata410327">
    <rdf:rdf>
      <cc:work rdf:about="">
        <dc:format>image/svg+xml</dc:format>
        <dc:type rdf:resource="http://purl.org/dc/dcmitype/StillImage"></dc:type>
      </cc:work>
    </rdf:rdf>
  </metadata>
  <defs id="defs410325"></defs>
  <linearGradient spreadMethod="pad" y2="30%" x2="-10%" y1="120%" x1="30%" id="3d_gradient2-logo-2b9f5e18-616e-4f8c-a05a-e18c44b9faa0">
    <stop id="stop410302" stop-opacity="1" stop-color="#ffffff" offset="0%"></stop>
    <stop id="stop410304" stop-opacity="1" stop-color="#000000" offset="100%"></stop>
  </linearGradient>
  <linearGradient gradientTransform="rotate(-30)" spreadMethod="pad" y2="30%" x2="-10%" y1="120%" x1="30%" id="3d_gradient3-logo-2b9f5e18-616e-4f8c-a05a-e18c44b9faa0">
    <stop id="stop410307" stop-opacity="1" stop-color="#ffffff" offset="0%"></stop>
    <stop id="stop410309" stop-opacity="1" stop-color="#cccccc" offset="50%"></stop>
    <stop id="stop410311" stop-opacity="1" stop-color="#000000" offset="100%"></stop>
  </linearGradient>
  <g id="logo-group">
    <image xlink:href="" id="container" x="272" y="144" width="480" height="480" style="display: none;" transform="translate(0 0)"></image>
    <g id="logo-center" transform="translate(321.54735 0)">
      <image xlink:href="" id="icon_container" style="display: none;" x="0" y="0"></image>
      <g id="slogan" style="font-style:normal;font-weight:normal;font-size:32px;line-height:1;font-family:'Brandmark Sans 39';font-variant-ligatures:none;text-align:center;text-anchor:middle" transform="translate(0 0)">
        <path id="path410329" style="font-style:normal;font-weight:normal;font-size:32px;line-height:1;font-family:'Brandmark Sans 39';font-variant-ligatures:none;text-align:center;text-anchor:middle" d="m 478.267,0 h 2.816 v -8.64 l 3.008,-13.12 h -2.816 l -1.024,4.48 -0.48,3.808 h -0.192 l -0.48,-3.808 -1.024,-4.48 h -2.816 l 3.008,13.088 z" stroke-width="0" stroke-linejoin="miter" stroke-miterlimit="2" fill="#ffffff" stroke="#ffffff" transform="translate(0 430.67599999999993) translate(50 39.28) scale(1.5) translate(-475.259 21.76)"></path>
        <path id="path410331" style="font-style:normal;font-weight:normal;font-size:32px;line-height:1;font-family:'Brandmark Sans 39';font-variant-ligatures:none;text-align:center;text-anchor:middle" d="m 485.204,-17.824 v 13.888 c 0,2.272 1.824,4.096 4.096,4.096 2.272,0 4.096,-1.824 4.096,-4.096 v -13.888 c 0,-2.272 -1.824,-4.096 -4.096,-4.096 -2.272,0 -4.096,1.824 -4.096,4.096 z m 2.816,13.888 v -13.888 c 0,-0.736 0.544,-1.344 1.28,-1.344 0.736,0 1.28,0.608 1.28,1.344 v 13.888 c 0,0.736 -0.544,1.344 -1.28,1.344 -0.736,0 -1.28,-0.608 -1.28,-1.344 z" stroke-width="0" stroke-linejoin="miter" stroke-miterlimit="2" fill="#ffffff" stroke="#ffffff" transform="translate(0 430.67599999999993) translate(64.9175 39.04) scale(1.5) translate(-485.204 21.92)"></path>
        <path id="path410333" style="font-style:normal;font-weight:normal;font-size:32px;line-height:1;font-family:'Brandmark Sans 39';font-variant-ligatures:none;text-align:center;text-anchor:middle" d="m 497.613,0.096 c 1.824,0 2.592,-2.112 2.592,-3.136 V 0 h 2.816 v -21.76 h -2.816 v 17.824 c 0,0.736 -0.544,1.344 -1.28,1.344 -0.736,0 -1.28,-0.608 -1.28,-1.344 V -21.76 h -2.816 v 18.112 c 0,2.176 1.12,3.744 2.784,3.744 z" stroke-width="0" stroke-linejoin="miter" stroke-miterlimit="2" fill="#ffffff" stroke="#ffffff" transform="translate(0 430.67599999999993) translate(79.35499999999999 39.28) scale(1.5) translate(-494.829 21.76)"></path>
        <path id="path410335" style="font-style:normal;font-weight:normal;font-size:32px;line-height:1;font-family:'Brandmark Sans 39';font-variant-ligatures:none;text-align:center;text-anchor:middle" d="m 508.902,-21.76 h -4.448 V 0 h 2.816 v -8.8 h 0.96 c 1.056,0 1.6,0.64 1.6,1.792 V 0 h 2.816 v -6.496 c 0,-1.856 -1.152,-3.296 -2.848,-3.648 v -0.352 c 1.696,-0.384 2.848,-1.92 2.848,-4.608 v -2.912 c 0,-2.176 -1.568,-3.744 -3.744,-3.744 z m -1.632,10.24 v -7.52 h 0.96 c 1.056,0 1.6,0.64 1.6,1.792 v 3.936 c 0,1.152 -0.544,1.792 -1.6,1.792 z" stroke-width="0" stroke-linejoin="miter" stroke-miterlimit="2" fill="#ffffff" stroke="#ffffff" transform="translate(0 430.67599999999993) translate(93.79249999999998 39.28) scale(1.5) translate(-504.454 21.76)"></path>
        <path id="path410337" style="font-style:normal;font-weight:normal;font-size:32px;line-height:1;font-family:'Brandmark Sans 39';font-variant-ligatures:none;text-align:center;text-anchor:middle" d="m 519.8265,0 h 3.072 l 2.88,-21.76 h -2.816 l -1.056,8.64 -0.448,7.008 h -0.192 l -0.448,-7.008 -1.056,-8.64 h -2.816 z" stroke-width="0" stroke-linejoin="miter" stroke-miterlimit="2" fill="#ffffff" stroke="#ffffff" transform="translate(0 430.67599999999993) translate(112.53125000000006 39.28) scale(1.5) translate(-516.9465 21.76)"></path>
        <path id="path410339" style="font-style:normal;font-weight:normal;font-size:32px;line-height:1;font-family:'Brandmark Sans 39';font-variant-ligatures:none;text-align:center;text-anchor:middle" d="m 526.8915,0 h 2.816 v -21.76 h -2.816 z" stroke-width="0" stroke-linejoin="miter" stroke-miterlimit="2" fill="#ffffff" stroke="#ffffff" transform="translate(0 430.67599999999993) translate(127.44874999999998 39.28) scale(1.5) translate(-526.8915 21.76)"></path>
        <path id="path410341" style="font-style:normal;font-weight:normal;font-size:32px;line-height:1;font-family:'Brandmark Sans 39';font-variant-ligatures:none;text-align:center;text-anchor:middle" d="m 537.4135,-8.384 0.096,0.48 h -0.32 l -3.232,-13.856 h -2.816 V 0 h 2.816 v -6.752 l -0.896,-6.624 -0.096,-0.48 h 0.288 L 536.5175,0 h 2.816 v -21.76 h -2.816 v 6.752 z" stroke-width="0" stroke-linejoin="miter" stroke-miterlimit="2" fill="#ffffff" stroke="#ffffff" transform="translate(0 430.67599999999993) translate(133.82374999999993 39.28) scale(1.5) translate(-531.1415 21.76)"></path>
        <path id="path410343" style="font-style:normal;font-weight:normal;font-size:32px;line-height:1;font-family:'Brandmark Sans 39';font-variant-ligatures:none;text-align:center;text-anchor:middle" d="m 543.1985,0 h 2.816 v -19.04 h 2.432 v -2.72 h -7.68 v 2.72 h 2.432 z" stroke-width="0" stroke-linejoin="miter" stroke-miterlimit="2" fill="#ffffff" stroke="#ffffff" transform="translate(0 430.67599999999993) translate(148.26124999999993 39.28) scale(1.5) translate(-540.7665 21.76)"></path>
      </g>
      <g id="title" style="font-style:normal;font-weight:normal;font-size:72px;line-height:1;font-family:'Brandmark Sans 39';font-variant-ligatures:normal;text-align:center;text-anchor:middle" transform="translate(0 0)">
        <path id="path410346" style="font-style:normal;font-weight:normal;font-size:72px;line-height:1;font-family:'Brandmark Sans 39';font-variant-ligatures:normal;text-align:center;text-anchor:middle" d="m 476.31837,0 h 6.48001 v -17.28 h 2.73599 c 5.112,0 9.21601,-4.104 9.21601,-9.216 v -13.248 c 0,-5.112 -4.10401,-9.216 -9.21601,-9.216 h -9.216 z m 6.33601,-23.472 v -19.296 h 2.87999 c 1.65601,0 2.88,1.368 2.88,3.024 v 13.248 c 0,1.656 -1.22399,3.024 -2.88,3.024 z" stroke-width="0" stroke-linejoin="miter" stroke-miterlimit="2" fill="#ffffff" stroke="#ffffff" transform="translate(0 358.192) translate(50 -91.624) scale(3.9) translate(-476.31837 48.96)"></path>
        <path id="path410348" style="font-style:normal;font-weight:normal;font-size:72px;line-height:1;font-family:'Brandmark Sans 39';font-variant-ligatures:normal;text-align:center;text-anchor:middle" d="m 497.97462,-9.72 h 6.33601 v -39.24 h -6.33601 z m 0,9.72 h 6.33601 v -6.12 h -6.33601 z" stroke-width="0" stroke-linejoin="miter" stroke-miterlimit="2" fill="#ffffff" stroke="#ffffff" transform="translate(0 358.192) translate(134.45937500000002 -91.624) scale(3.9) translate(-497.97462 48.96)"></path>
        <path id="path410350" style="font-style:normal;font-weight:normal;font-size:72px;line-height:1;font-family:'Brandmark Sans 39';font-variant-ligatures:normal;text-align:center;text-anchor:middle" d="m 507.53712,-40.104 v 31.248 c 0,5.112 4.104,9.216 9.216,9.216 5.11201,0 9.216,-4.104 9.216,-9.216 v -7.704 h -6.336 v 7.704 c 0,1.656 -1.22399,3.024 -2.88,3.024 -1.656,0 -2.88,-1.368 -2.88,-3.024 v -31.248 c 0,-1.656 1.224,-3.024 2.88,-3.024 1.65601,0 2.88,1.368 2.88,3.024 v 7.704 h 6.336 v -7.704 c 0,-5.112 -4.10399,-9.216 -9.216,-9.216 -5.112,0 -9.216,4.104 -9.216,9.216 z" stroke-width="0" stroke-linejoin="miter" stroke-miterlimit="2" fill="#ffffff" stroke="#ffffff" transform="translate(0 358.192) translate(171.75312500000007 -93.02799999999999) scale(3.9) translate(-507.53712 49.32)"></path>
        <path id="path410352" style="font-style:normal;font-weight:normal;font-size:72px;line-height:1;font-family:'Brandmark Sans 39';font-variant-ligatures:normal;text-align:center;text-anchor:middle" d="M 529.19337,-48.96 V 0 h 6.336 v -17.64 l 0.36,-1.008 6.12,18.648 h 6.336 l -8.568,-26.928 8.568,-22.032 h -6.336 l -6.48,17.64 v -17.64 z" stroke-width="0" stroke-linejoin="miter" stroke-miterlimit="2" fill="#ffffff" stroke="#ffffff" transform="translate(0 358.192) translate(256.2125 -91.624) scale(3.9) translate(-529.19337 48.96)"></path>
      </g>
      <image xlink:href="" id="icon" style="display: none;" x="0" y="0"></image>
    </g>
  </g>
</svg>